<svg xmlns="http://www.w3.org/2000/svg" width="34" height="34" viewBox="0 0 34 34" fill="none">
<g clip-path="url(#clip0_931_295)">
<path d="M31 0H3C1.34315 0 0 1.34315 0 3V31C0 32.6569 1.34315 34 3 34H31C32.6569 34 34 32.6569 34 31V3C34 1.34315 32.6569 0 31 0Z" fill="#0058D4"/>
<path d="M-0.791635 18.1424L0.860103 16.3844C2.512 14.6321 5.81547 11.1162 9.21873 11.1859C12.6218 11.2499 16.1245 14.8939 19.5797 16.8272C23.3613 18.928 24.4298 19.6607 27.8263 17.4945C30.9077 15.5293 31.5077 14.0664 35.5278 11.5898C39.5479 9.11325 56.8998 10.0051 58.5725 9.0005L58.6712 17.0046L50.5543 29.8653L48.855 29.9126C47.1557 29.9598 43.757 30.0544 40.3583 30.149C36.9596 30.2436 36.2254 33.2985 32.8268 33.3931C30.2679 44.6867 19.6736 30.8119 16.2749 30.9065C12.8763 31.0011 13.1688 30.9056 9.77012 31.0002C6.37144 31.0948 2.97275 31.1894 1.27341 31.2367L-0.425931 31.2839L-0.791635 18.1424Z" fill="#0179FE"/>
<path d="M46.5802 26.602L44.8086 24.9649C43.0373 23.3334 39.4942 20.0592 36.1043 20.3686C32.7142 20.6724 29.4771 24.5543 26.1669 26.7264C22.8569 28.9041 19.4736 29.3664 16.0476 28.8323C12.6217 28.2982 6.72885 21.7396 4.43122 18.9476C2.13359 16.1555 -1.99101 13.9652 -3.73038 13.0811L-4.75095 19.9493L-3.81149 41.9158L-2.11304 41.8432C-0.414594 41.7706 2.9823 41.6253 6.3792 41.48C9.77609 41.3347 10.7238 44.3303 14.1207 44.185C17.4694 55.2701 27.0591 40.6829 30.456 40.5377C33.8529 40.3924 33.5544 40.3178 36.9513 40.1725C40.3481 40.0272 43.745 39.882 45.4435 39.8093L47.1419 39.7367L46.5802 26.602Z" fill="#4BA0FF"/>
</g>
<defs>
<clipPath id="clip0_931_295">
<rect width="34" height="34" rx="3" fill="white"/>
</clipPath>
</defs>
</svg>