<svg xmlns="http://www.w3.org/2000/svg" width="50" height="50" viewBox="0 0 50 50" fill="none">
<path d="M48.4564 22.4806L27.5194 1.54359C26.128 0.152137 23.872 0.152137 22.4806 1.54359L1.54359 22.4806C0.152138 23.872 0.152136 26.128 1.54359 27.5194L22.4806 48.4564C23.872 49.8479 26.128 49.8479 27.5194 48.4564L48.4564 27.5194C49.8479 26.128 49.8479 23.872 48.4564 22.4806Z" fill="#104FB4" stroke="#0058D4"/>
<g clip-path="url(#clip0_927_294)">
<path d="M46.9623 22.9203L27.1633 3.12132C25.9917 1.94975 24.0922 1.94975 22.9207 3.12132L3.12168 22.9203C1.95011 24.0919 1.95011 25.9914 3.12168 27.163L22.9207 46.9619C24.0922 48.1335 25.9917 48.1335 27.1633 46.9619L46.9623 27.163C48.1339 25.9914 48.1339 24.0919 46.9623 22.9203Z" fill="#0058D4"/>
<path d="M-1.81403 26.6472L-0.03619 25.0169C1.74138 23.3922 5.29706 20.1316 8.68572 20.454C12.0746 20.7708 15.2968 24.6651 18.5987 26.8499C21.9003 29.0403 25.2818 29.5156 28.7098 28.9946C32.1378 28.4737 38.0557 21.9377 40.364 19.1545C42.6723 16.3713 46.8053 14.1968 48.548 13.3193L49.5423 20.1914L48.5185 42.1542L46.8204 42.0751C45.1222 41.9959 41.7259 41.8376 38.3296 41.6793C34.9333 41.521 33.9741 44.5129 30.5778 44.3546C27.1865 55.4268 17.6529 40.8029 14.2566 40.6446C10.8603 40.4863 11.1591 40.4128 7.76279 40.2545C4.36648 40.0962 0.970164 39.9379 -0.727993 39.8588L-2.42615 39.7796L-1.81403 26.6472Z" fill="#0179FE"/>
<path d="M47.0875 37.2829L45.3096 35.6526C43.5321 34.028 39.9764 30.7673 36.5877 31.0898C33.1988 31.4066 29.9766 35.3008 26.6748 37.4856C23.3732 39.676 19.9916 40.1513 16.5637 39.6304C13.1357 39.1094 7.21776 32.5734 4.90944 29.7902C2.60112 27.007 -1.53185 24.8325 -3.2746 23.9551L-4.26882 30.8271L-3.2451 52.7899L-1.54694 52.7108C0.151211 52.6316 3.54752 52.4733 6.94384 52.315C10.3401 52.1567 11.2994 55.1486 14.6957 54.9903C18.0869 66.0625 27.6206 51.4386 31.0169 51.2803C34.4132 51.122 34.1143 51.0486 37.5106 50.8903C40.907 50.732 44.3033 50.5736 46.0014 50.4945L47.6996 50.4153L47.0875 37.2829Z" fill="#4BA0FF"/>
</g>
<defs>
<clipPath id="clip0_927_294">
<rect x="25.042" y="1" width="34" height="34" rx="3" transform="rotate(45 25.042 1)" fill="white"/>
</clipPath>
</defs>
</svg>